<svg width="25" height="24" viewBox="0 0 25 24" fill="none" xmlns="http://www.w3.org/2000/svg">
<path d="M21.5007 18.7069L13.5117 3.87094C12.9455 2.81906 11.4371 2.81906 10.8703 3.87094L2.8819 18.7069C2.75895 18.9352 2.69731 19.1916 2.703 19.4508C2.70868 19.7101 2.78149 19.9635 2.91433 20.1863C3.04717 20.409 3.23548 20.5935 3.46091 20.7217C3.68633 20.85 3.94115 20.9176 4.20049 20.918H20.1797C20.4393 20.918 20.6944 20.8507 20.9201 20.7226C21.1459 20.5945 21.3345 20.4101 21.4676 20.1873C21.6007 19.9644 21.6738 19.7109 21.6795 19.4514C21.6853 19.1919 21.6237 18.9354 21.5007 18.7069V18.7069ZM12.1913 18.6211C12.0059 18.6211 11.8246 18.5661 11.6704 18.4631C11.5163 18.3601 11.3961 18.2137 11.3251 18.0424C11.2542 17.8711 11.2356 17.6826 11.2718 17.5007C11.308 17.3188 11.3973 17.1518 11.5284 17.0207C11.6595 16.8896 11.8265 16.8003 12.0084 16.7641C12.1902 16.7279 12.3787 16.7465 12.55 16.8175C12.7213 16.8884 12.8678 17.0086 12.9708 17.1627C13.0738 17.3169 13.1288 17.4982 13.1288 17.6836C13.1288 17.8067 13.1045 17.9286 13.0574 18.0424C13.0103 18.1561 12.9412 18.2595 12.8542 18.3465C12.7671 18.4336 12.6638 18.5026 12.55 18.5497C12.4363 18.5968 12.3144 18.6211 12.1913 18.6211ZM13.2094 9.19219L12.9403 14.9109C12.9403 15.1099 12.8613 15.3006 12.7207 15.4413C12.58 15.5819 12.3893 15.6609 12.1903 15.6609C11.9914 15.6609 11.8007 15.5819 11.66 15.4413C11.5194 15.3006 11.4403 15.1099 11.4403 14.9109L11.1713 9.19453C11.1652 9.05793 11.1867 8.92151 11.2345 8.79341C11.2823 8.6653 11.3554 8.54813 11.4495 8.44888C11.5435 8.34963 11.6566 8.27033 11.782 8.2157C11.9073 8.16108 12.0424 8.13225 12.1791 8.13094H12.1889C12.3266 8.13087 12.4628 8.15869 12.5894 8.21272C12.7161 8.26675 12.8304 8.34587 12.9256 8.44531C13.0208 8.54475 13.0948 8.66245 13.1433 8.7913C13.1918 8.92015 13.2136 9.05748 13.2075 9.195L13.2094 9.19219Z" fill="#F0BE0B"/>
</svg>
