<svg width="17" height="16" viewBox="0 0 17 16" fill="none" xmlns="http://www.w3.org/2000/svg">
<path fill-rule="evenodd" clip-rule="evenodd" d="M1.67822 15C1.67822 14.4477 2.12594 14 2.67822 14H14.6782C15.2305 14 15.6782 14.4477 15.6782 15C15.6782 15.5523 15.2305 16 14.6782 16H2.67822C2.12594 16 1.67822 15.5523 1.67822 15ZM4.97112 7.29289C5.36164 6.90237 5.9948 6.90237 6.38533 7.29289L7.67822 8.58579L7.67822 1C7.67822 0.447716 8.12594 2.41411e-08 8.67822 0C9.23051 -2.41411e-08 9.67822 0.447715 9.67822 1L9.67822 8.58579L10.9711 7.29289C11.3616 6.90237 11.9948 6.90237 12.3853 7.29289C12.7759 7.68342 12.7759 8.31658 12.3853 8.70711L9.38533 11.7071C9.19779 11.8946 8.94344 12 8.67822 12C8.41301 12 8.15865 11.8946 7.97112 11.7071L4.97112 8.70711C4.58059 8.31658 4.58059 7.68342 4.97112 7.29289Z" fill="white"/>
</svg>
