<svg width="17" height="16" viewBox="0 0 17 16" fill="none" xmlns="http://www.w3.org/2000/svg">
<path d="M4.67822 0H9.97122C10.2364 5.66374e-05 10.4907 0.105451 10.6782 0.293L14.3852 4C14.5728 4.18749 14.6782 4.4418 14.6782 4.707V14C14.6782 14.5304 14.4675 15.0391 14.0924 15.4142C13.7174 15.7893 13.2087 16 12.6782 16H4.67822C4.14779 16 3.63908 15.7893 3.26401 15.4142C2.88894 15.0391 2.67822 14.5304 2.67822 14V2C2.67822 1.46957 2.88894 0.960859 3.26401 0.585786C3.63908 0.210714 4.14779 0 4.67822 0V0ZM10.1782 1.5V3.5C10.1782 3.76522 10.2836 4.01957 10.4711 4.20711C10.6587 4.39464 10.913 4.5 11.1782 4.5H13.1782L10.1782 1.5Z" fill="white"/>
</svg>
