<svg width="22" height="11" viewBox="0 0 22 11" fill="none" xmlns="http://www.w3.org/2000/svg">
<g clip-path="url(#clip0_133_290)">
<path fill-rule="evenodd" clip-rule="evenodd" d="M17.9519 1.16133L21.1114 4.32089C21.8925 5.10194 21.8925 6.36827 21.1114 7.14932L18.0474 10.2133L16.6332 8.79912L19.6972 5.73511L16.5376 2.57554L17.9519 1.16133ZM13.872 -0.0900778L15.2214 -1.56916L12.4142 -4.37634C11.6331 -5.15739 10.3668 -5.15739 9.58575 -4.37634L6.52175 -1.31233L7.93596 0.10188L11 -2.96213L13.872 -0.0900778ZM5.5737 9.00608L2.30273 5.73511L5.9458 2.09204L4.57692 0.632493L0.888517 4.3209C0.107469 5.10194 0.107468 6.36827 0.888517 7.14932L4.22435 10.4852L5.5737 9.00608ZM14.3643 11.068L11 14.4323L7.8404 11.2728L6.42619 12.687L9.58576 15.8466C10.3668 16.6276 11.6331 16.6276 12.4142 15.8466L15.7332 12.5276L14.3643 11.068Z" fill="white"/>
<line x1="19.9185" y1="5.85876" x2="12.2811" y2="5.85876" stroke="white" stroke-width="2"/>
<line x1="9.61841" y1="5.85876" x2="2.00201" y2="5.85876" stroke="white" stroke-width="2"/>
</g>
<defs>
<clipPath id="clip0_133_290">
<rect width="22" height="11" fill="white"/>
</clipPath>
</defs>
</svg>
