<svg width="24" height="12" viewBox="0 0 24 12" fill="none" xmlns="http://www.w3.org/2000/svg">
<g clip-path="url(#clip0_133_275)">
<path fill-rule="evenodd" clip-rule="evenodd" d="M-7.23298 10.5213L-10.3925 7.36172C-11.1736 6.58067 -11.1736 5.31434 -10.3925 4.5333L-7.32854 1.46929L-5.91433 2.8835L-8.97834 5.94751L-5.81877 9.10707L-7.23298 10.5213ZM-3.15315 11.7727L-4.5025 13.2518L-1.69531 16.059C-0.914263 16.84 0.352068 16.84 1.13312 16.059L4.19713 12.995L2.78291 11.5807L-0.281098 14.6447L-3.15315 11.7727ZM5.14517 2.67654L8.41614 5.94751L4.77307 9.59058L6.14195 11.0501L9.83035 7.36172C10.6114 6.58068 10.6114 5.31434 9.83036 4.5333L6.49452 1.19746L5.14517 2.67654ZM-3.6454 0.61457L-0.281097 -2.74973L2.87847 0.409836L4.29268 -1.00438L1.13312 -4.16394C0.352069 -4.94499 -0.914262 -4.94499 -1.69531 -4.16394L-5.01428 -0.844974L-3.6454 0.61457Z" fill="white"/>
<line x1="1.10059" y1="5.82379" x2="8.71698" y2="5.82379" stroke="white" stroke-width="2"/>
</g>
<g clip-path="url(#clip1_133_275)">
<path fill-rule="evenodd" clip-rule="evenodd" d="M31.233 1.84395L34.3925 5.00351C35.1736 5.78456 35.1736 7.05089 34.3925 7.83194L31.3285 10.8959L29.9143 9.48173L32.9783 6.41772L29.8188 3.25816L31.233 1.84395ZM27.1531 0.592539L28.5025 -0.88654L25.6953 -3.69373C24.9143 -4.47477 23.6479 -4.47478 22.8669 -3.69373L19.8029 -0.629717L21.2171 0.784497L24.2811 -2.27951L27.1531 0.592539ZM18.8548 9.68869L15.5839 6.41773L19.2269 2.77465L17.858 1.31511L14.1696 5.00351C13.3886 5.78456 13.3886 7.05089 14.1696 7.83194L17.5055 11.1678L18.8548 9.68869ZM27.6454 11.7507L24.2811 15.115L21.1215 11.9554L19.7073 13.3696L22.8669 16.5292C23.6479 17.3102 24.9143 17.3102 25.6953 16.5292L29.0143 13.2102L27.6454 11.7507Z" fill="white"/>
<line x1="22.8994" y1="6.54138" x2="15.283" y2="6.54138" stroke="white" stroke-width="2"/>
</g>
<defs>
<clipPath id="clip0_133_275">
<rect width="11" height="11" fill="white" transform="translate(11 11.6826) rotate(-180)"/>
</clipPath>
<clipPath id="clip1_133_275">
<rect width="11" height="11" fill="white" transform="translate(13 0.682617)"/>
</clipPath>
</defs>
</svg>
