<svg width="17" height="17" viewBox="0 0 17 17" fill="none" xmlns="http://www.w3.org/2000/svg">
<path d="M16.0507 8.68262C16.0507 12.6654 12.8219 15.8942 8.83911 15.8942M16.0507 8.68262C16.0507 4.69979 12.8219 1.47107 8.83911 1.47107M16.0507 8.68262H1.62756M8.83911 15.8942C4.85628 15.8942 1.62756 12.6654 1.62756 8.68262M8.83911 15.8942C10.1667 15.8942 11.243 12.6654 11.243 8.68262C11.243 4.69979 10.1667 1.47107 8.83911 1.47107M8.83911 15.8942C7.5115 15.8942 6.43526 12.6654 6.43526 8.68262C6.43526 4.69979 7.5115 1.47107 8.83911 1.47107M1.62756 8.68262C1.62756 4.69979 4.85628 1.47107 8.83911 1.47107" stroke="white" stroke-width="1.5" stroke-linecap="round" stroke-linejoin="round"/>
</svg>
