<svg width="24" height="24" viewBox="0 0 24 24" fill="none" xmlns="http://www.w3.org/2000/svg">
  <circle cx="12" cy="12" r="10" fill="#a2a2a2"/>
  <g clip-path="url(#clip0_133_254)">
    <path d="M16.96 16.96C15.8204 17.8286 14.4328 18.3099 13 18.3333C8.33335 18.3333 5.66669 13 5.66669 13C6.49595 11.4546 7.64611 10.1044 9.04002 9.03998M11.6 7.82664C12.0589 7.71923 12.5287 7.66554 13 7.66664C17.6667 7.66664 20.3334 13 20.3334 13C19.9287 13.7571 19.4461 14.4698 18.8934 15.1266M14.4134 14.4133C14.2303 14.6098 14.0095 14.7674 13.7641 14.8767C13.5188 14.986 13.254 15.0448 12.9854 15.0496C12.7169 15.0543 12.4501 15.0049 12.2011 14.9043C11.9521 14.8037 11.7258 14.654 11.5359 14.4641C11.346 14.2742 11.1963 14.0479 11.0957 13.7989C10.9951 13.5499 10.9457 13.2831 10.9504 13.0146C10.9552 12.746 11.0139 12.4812 11.1233 12.2359C11.2326 11.9905 11.3902 11.7697 11.5867 11.5866" stroke="white" stroke-width="1.2" stroke-linecap="round" stroke-linejoin="round"/>
    <path d="M5.66669 5.66669L20.3334 20.3334" stroke="white" stroke-width="1.2" stroke-linecap="round" stroke-linejoin="round"/>
  </g>
  <defs>
    <clipPath id="clip0_133_254">
      <rect width="24" height="24" fill="white" rx="12" ry="12"/>
    </clipPath>
  </defs>
</svg>