<svg width="17" height="16" viewBox="0 0 17 16" fill="none" xmlns="http://www.w3.org/2000/svg">
<path fill-rule="evenodd" clip-rule="evenodd" d="M3.25867 0H7.75867V1.5H3.25867C2.43024 1.5 1.75867 2.17157 1.75867 3V13C1.75867 13.8284 2.43024 14.5 3.25867 14.5H13.2587C14.0871 14.5 14.7587 13.8284 14.7587 13V8.875H16.2587V13C16.2587 14.6569 14.9155 16 13.2587 16H3.25867C1.60181 16 0.258667 14.6569 0.258667 13V3C0.258667 1.34315 1.60181 0 3.25867 0Z" fill="white"/>
<path d="M16.242 0.666646C16.242 0.307661 15.9509 0.0166462 15.592 0.0166462H9.74196C9.38298 0.0166462 9.09196 0.307661 9.09196 0.666646C9.09196 1.02563 9.38298 1.31665 9.74196 1.31665L14.942 1.31665V6.51665C14.942 6.87563 15.233 7.16665 15.592 7.16665C15.9509 7.16665 16.242 6.87563 16.242 6.51665V0.666646ZM8.88491 8.29293L16.0516 1.12627L15.1323 0.207027L7.96567 7.37369L8.88491 8.29293Z" fill="white"/>
</svg>
