<svg width="21" height="20" viewBox="0 0 21 20" fill="none" xmlns="http://www.w3.org/2000/svg">
<path fill-rule="evenodd" clip-rule="evenodd" d="M5.2522 4V7H4.2522C3.14763 7 2.2522 7.89543 2.2522 9V12C2.2522 13.1046 3.14763 14 4.2522 14H5.2522V16C5.2522 17.1046 6.14763 18 7.2522 18H13.2522C14.3568 18 15.2522 17.1046 15.2522 16V14H16.2522C17.3568 14 18.2522 13.1046 18.2522 12V9C18.2522 7.89543 17.3568 7 16.2522 7H15.2522V4C15.2522 2.89543 14.3568 2 13.2522 2H7.2522C6.14763 2 5.2522 2.89543 5.2522 4ZM13.2522 4H7.2522V7H13.2522V4ZM13.2522 12H7.2522V16H13.2522V12Z" fill="white"/>
</svg>
