<svg width="24" height="24" viewBox="0 0 24 24" fill="none" xmlns="http://www.w3.org/2000/svg">
  <circle cx="12" cy="12" r="10" />
  <g clip-path="url(#clip0_133_251)">
    <path d="M4.66669 12C4.66669 12 7.33335 6.66669 12.0000 6.66669C16.6667 6.66669 19.3334 12 19.3334 12C19.3334 12 16.6667 17.3334 12.0000 17.3334C7.33335 17.3334 4.66669 12 4.66669 12Z" stroke="white" stroke-width="1.5" stroke-linecap="round" stroke-linejoin="round"/>
    <path d="M12 14C13.1046 14 14 13.1046 14 12C14 10.8954 13.1046 10 12 10C10.8954 10 10 10.8954 10 12C10 13.1046 10.8954 14 12 14Z" stroke="white" stroke-width="1.5" stroke-linecap="round" stroke-linejoin="round"/>
  </g>
  <defs>
    <clipPath id="clip0_133_251">
      <rect x="2" y="4" width="20" height="16" fill="white"/>
    </clipPath>
  </defs>
</svg>
