<svg width="21" height="17" viewBox="0 0 21 17" fill="none" xmlns="http://www.w3.org/2000/svg">
<path fill-rule="evenodd" clip-rule="evenodd" d="M17.2707 1.02282C20.6204 5.80784 20.1325 11.5263 17.2832 15.3252C17.0678 15.6124 17.126 16.0198 17.4132 16.2352C17.7004 16.4506 18.1078 16.3924 18.3232 16.1052C21.5001 11.8694 22.0168 5.53573 18.3357 0.277291C18.1298 -0.0167952 17.7245 -0.0883073 17.4304 0.117565C17.1363 0.323437 17.0648 0.728733 17.2707 1.02282ZM1.11084 5.82986C0.886865 5.88445 0.729248 6.0851 0.729248 6.31563V10.0497C0.729248 10.2802 0.886865 10.4808 1.11084 10.5354L3.73683 11.1755C3.79158 11.1889 3.84367 11.2114 3.89092 11.2421L10.0002 15.2131C10.3328 15.4293 10.7727 15.1906 10.7727 14.7939V1.5714C10.7727 1.17468 10.3328 0.935969 10.0002 1.15218L3.89092 5.12322C3.84367 5.15393 3.79158 5.17643 3.73683 5.18977L1.11084 5.82986ZM12.2073 4.9723C12.9282 6.32982 13.1945 7.29426 13.1708 8.20483C13.1467 9.12951 12.8228 10.0803 12.193 11.4216C12.0404 11.7466 12.1802 12.1337 12.5051 12.2862C12.8301 12.4388 13.2172 12.2991 13.3697 11.9741C14.0144 10.6011 14.4389 9.44599 14.4703 8.23872C14.5022 7.01735 14.1313 5.82376 13.3554 4.3626C13.1871 4.04555 12.7936 3.92501 12.4765 4.09337C12.1595 4.26173 12.0389 4.65524 12.2073 4.9723ZM16.4316 8.11527C16.4576 6.59689 15.9529 5.05021 14.733 2.98992C14.5501 2.68103 14.6522 2.28235 14.9611 2.09945C15.27 1.91654 15.6687 2.01869 15.8516 2.32758C17.133 4.49165 17.7632 6.28169 17.7314 8.13755C17.6998 9.97937 17.0164 11.7953 15.8692 14.0059C15.7039 14.3246 15.3116 14.4488 14.9929 14.2835C14.6743 14.1182 14.55 13.7258 14.7154 13.4072C15.8381 11.2435 16.4053 9.64768 16.4316 8.11527Z" fill="white"/>
</svg>
